<svg xmlns="http://www.w3.org/2000/svg" viewBox="0 0 32 32"><path fill="#000" d="M16 31C7.716 31 1 24.284 1 16 1 7.716 7.716 1 16 1c8.284 0 15 6.716 15 15 0 8.284-6.716 15-15 15zm0-25.657c-.696 3.37-1.267 6.728-2.65 9.946-.697 1.62-2.11 4.141-3.28 5.427-.726.796-1.918 1.905-3.073 2.157.918.175 1.652-.058 2.456-.427a8.049 8.049 0 0 0 2.375-1.655c1.869-1.862 3.25-5.04 4.172-7.371.923 2.33 2.303 5.509 4.172 7.371a8.049 8.049 0 0 0 2.375 1.655c.804.369 1.538.602 2.456.427-1.155-.252-2.347-1.36-3.072-2.157-1.172-1.286-2.584-3.807-3.28-5.427-1.384-3.218-1.955-6.575-2.651-9.946z"/></svg>